PathFileType	4	(X/Y/Z)	 s01c0301.trc
DataRate	CameraRate	NumFrames	NumMarkers	Units	OrigDataRate	OrigDataStartFrame	OrigNumFrames
200	200	6	48	mm	200	1501	2000
Frame#	Time	racr			lacr			c7			jug			rlel			rdr			llel			ldr			s2			lic			ric			lasi			rasi			rpsi			lpsi			rgt			lgt			rth1			rth2			rth3			rth4			rlfc			rsh1			rsh2			rsh3			rsh4			rlmal			rmmal			rcal			rtoe			rmt5			lth1			lth2			lth4			lth3			llfc			lsh1			lsh2			lsh3			lsh4			llmal			lmmal			lcal			ltoe			lmt5			SBIKE			LBIKE			RBIKE			
		X1	Y1	Z1	X2	Y2	Z2	X3	Y3	Z3	X4	Y4	Z4	X5	Y5	Z5	X6	Y6	Z6	X7	Y7	Z7	X8	Y8	Z8	X9	Y9	Z9	X10	Y10	Z10	X11	Y11	Z11	X12	Y12	Z12	X13	Y13	Z13	X14	Y14	Z14	X15	Y15	Z15	X16	Y16	Z16	X17	Y17	Z17	X18	Y18	Z18	X19	Y19	Z19	X20	Y20	Z20	X21	Y21	Z21	X22	Y22	Z22	X23	Y23	Z23	X24	Y24	Z24	X25	Y25	Z25	X26	Y26	Z26	X27	Y27	Z27	X28	Y28	Z28	X29	Y29	Z29	X30	Y30	Z30	X31	Y31	Z31	X32	Y32	Z32	X33	Y33	Z33	X34	Y34	Z34	X35	Y35	Z35	X36	Y36	Z36	X37	Y37	Z37	X38	Y38	Z38	X39	Y39	Z39	X40	Y40	Z40	X41	Y41	Z41	X42	Y42	Z42	X43	Y43	Z43	X44	Y44	Z44	X45	Y45	Z45	X46	Y46	Z46	X47	Y47	Z47	X48	Y48	Z48	
1501	7.5050	716.542723	1366.357357	-110.916515	724.416855	1315.798758	-439.032101	703.825993	1416.941080	-267.285792	683.578917	1252.310531	-262.094793	666.845692	1092.439933	3.172674	737.177142	847.571916	-58.890470	587.638070	1067.316007	-547.270482	720.822672	881.470603	-434.865428	161.746761	1231.366361	-223.398161	314.968225	1222.714539	-417.140049	333.540804	1227.698520	-89.903228	316.761854	1171.326191	-388.704377	353.026052	1174.069192	-118.018049	197.969029	1272.151471	-177.102096	187.025406	1270.577803	-282.989525	283.783702	1111.259237	-49.882591	251.133811	1087.909903	-423.188579	364.834632	1005.172293	-44.734202	415.892036	940.804934	-56.190526	465.458986	866.798331	-71.741593	454.707803	971.886654	-81.623609	481.765942	757.821977	-97.685524	379.986258	695.761769	-58.740468	312.458170	644.289782	-60.914375	236.319063	598.137578	-68.391660	338.242490	607.972631	-100.998681	126.239562	544.708980	-84.173929	159.004031	519.261546	-160.198812	86.570322	566.370808	-138.338506	184.948136	312.453019	-137.369376	115.543494	391.409124	-64.170806	306.462246	969.341464	-426.664583	371.413585	909.093407	-426.640425	409.744426	947.619296	-422.345082	427.991665	845.965105	-409.712703	479.322169	744.464228	-393.523203	412.465749	652.171092	-431.831560	385.281599	569.549301	-428.875496	356.111274	489.439984	-419.598176	438.853702	553.812867	-402.994972	308.987310	372.759714	-411.910768	344.659369	376.560517	-332.419224	254.897573	352.535135	-373.576486	511.358264	249.326381	-369.059658	407.875861	257.695628	-439.372145	-222.565634	893.332454	-249.591455	-11.971078	84.526972	-453.701845	-20.058980	80.936389	-53.482452	
1502	7.5100	715.971727	1366.719314	-110.483572	725.418036	1315.439615	-438.253003	703.909808	1417.225081	-267.178033	683.618308	1252.533820	-261.699523	666.178459	1092.376683	2.618354	737.087893	847.695524	-59.118342	590.084862	1067.339466	-548.216472	721.310284	880.181153	-434.968440	161.123895	1230.228332	-226.162577	314.132827	1219.938329	-419.042725	332.928624	1228.650158	-91.629175	317.213976	1169.500546	-390.227446	352.450333	1174.709880	-119.161259	196.989728	1271.407560	-179.785044	186.890331	1269.064189	-285.625466	283.856695	1112.548216	-50.827030	250.566452	1084.802862	-424.190818	367.326845	1008.265269	-44.418704	420.082183	945.205936	-55.720073	471.434687	872.398110	-72.028686	457.986239	977.134255	-81.777134	488.806691	763.203411	-97.176121	386.125449	701.620330	-58.690475	317.986900	651.374334	-60.620621	240.945696	606.656555	-68.002056	342.757832	614.998043	-101.179568	129.496939	553.947909	-84.037927	162.924189	529.714112	-160.886489	89.591258	576.188848	-137.839978	190.202843	323.093344	-137.570411	120.285815	401.300128	-64.126166	302.138982	966.041496	-427.319761	365.436634	903.895449	-427.194386	404.714900	941.304016	-423.373781	420.256335	839.265350	-410.173043	471.508110	737.423392	-394.064398	406.465285	644.578220	-433.090973	379.942566	561.791213	-429.875141	351.456683	481.392206	-420.505221	433.229392	546.596994	-402.987538	305.098514	363.696158	-412.279471	341.751087	368.726774	-334.003645	251.452140	344.395472	-374.060400	506.907603	238.416161	-369.006740	403.540032	247.672224	-439.456589	-222.592246	893.319019	-249.636362	-11.998419	84.512126	-453.712195	-20.069104	80.937980	-53.485490	
1503	7.5150	715.254403	1367.168006	-110.029989	726.517741	1315.269592	-437.378489	703.957560	1417.596476	-266.963978	683.679069	1252.926193	-261.327825	665.681704	1092.295524	1.962539	736.994169	847.849975	-59.387428	592.842470	1067.406432	-549.133684	721.629974	879.152571	-435.207627	160.835308	1229.218476	-229.053577	313.365264	1217.585578	-421.007789	332.284176	1229.615860	-93.349101	317.671511	1167.750503	-391.964511	351.855292	1175.395378	-120.357705	196.073319	1270.782553	-182.725487	186.972808	1267.647864	-288.362304	283.819124	1114.028334	-52.096481	249.708352	1082.122470	-425.382239	369.700590	1011.675411	-44.155396	424.007315	949.961767	-55.231903	477.171752	878.342764	-71.577398	461.052259	982.717702	-81.676911	495.327835	768.678956	-96.360651	392.306725	708.132002	-58.295347	323.639571	658.543481	-60.412007	245.944969	615.058369	-67.846663	347.743627	622.085262	-101.206921	133.399094	563.601054	-83.862456	166.944472	539.589150	-160.923803	93.127175	585.885409	-137.344452	196.042501	333.563789	-137.796084	125.551148	411.003460	-64.020589	297.688158	963.021932	-427.967720	359.102215	898.926882	-427.792092	399.542488	935.210634	-424.986809	411.675255	832.893363	-411.385446	463.144442	730.717517	-394.681683	400.225204	637.087105	-434.087969	374.485493	553.933094	-430.671588	346.499038	473.571432	-421.566697	427.307025	539.532707	-402.901742	300.594113	354.605041	-412.223408	338.042069	361.135231	-335.474969	247.493244	336.775854	-374.958702	501.465242	227.146455	-368.383159	398.737543	238.099554	-439.547018	-222.587345	893.337911	-249.672906	-11.998977	84.518310	-453.706838	-20.065996	80.925332	-53.493256	
1504	7.5200	714.509547	1367.718536	-109.355135	727.685540	1315.219479	-436.365243	703.975361	1418.048368	-266.644043	683.810372	1253.394067	-260.864503	665.079537	1092.332480	1.301007	736.982155	848.074833	-59.609351	596.055247	1067.453738	-549.688114	722.022861	878.124974	-435.426827	160.534901	1228.318120	-232.018121	312.805049	1215.764307	-422.883750	331.502998	1230.430894	-95.245285	318.047540	1165.938376	-393.781975	351.236479	1176.193964	-121.635075	195.260370	1270.257825	-185.774206	187.155073	1266.505656	-291.285787	283.422496	1115.351595	-53.227468	248.608108	1079.839285	-426.657385	371.671690	1015.199094	-43.987638	427.564469	954.820400	-54.657854	482.526970	884.526237	-70.784847	463.772811	988.462660	-81.418652	501.702569	774.583598	-95.282444	398.751100	714.665520	-57.922486	329.479076	665.912656	-60.167498	251.224342	623.299320	-67.811360	353.147505	629.099394	-100.978895	137.922015	572.950464	-83.734102	171.569149	549.197466	-161.061460	96.876247	594.780185	-137.517797	202.564042	343.828095	-137.834803	131.355081	420.522641	-64.043086	293.187873	960.264541	-428.701299	352.641968	894.246637	-428.498117	394.103401	929.377860	-426.201961	403.198491	827.094119	-412.244975	454.268699	724.226591	-395.393747	393.788591	629.678347	-434.912258	368.600516	546.323703	-431.498074	341.266597	465.763112	-422.493128	421.168324	532.486739	-402.619156	295.497090	347.212411	-413.428912	333.589487	353.809458	-336.834958	243.275177	329.508733	-375.192126	495.832513	216.755491	-368.157615	393.346096	228.883233	-439.530782	-222.584543	893.325144	-249.697748	-11.982654	84.491208	-453.708139	-20.078323	80.938105	-53.491638	
1505	7.5250	713.647638	1368.421112	-108.653111	728.831993	1315.305639	-435.211937	703.951886	1418.715575	-266.222662	683.985027	1254.212752	-260.203636	664.563347	1092.411461	0.632570	736.947022	848.364736	-59.837920	599.429123	1067.541627	-550.268471	722.505010	877.056795	-435.599784	160.290927	1227.643118	-235.104947	312.793467	1214.482390	-424.883623	330.578253	1231.228776	-97.037915	318.451524	1164.278385	-395.794347	350.565950	1176.998521	-122.927747	194.729709	1269.662689	-188.951563	187.420042	1265.485644	-294.446274	283.040699	1116.793828	-54.412995	247.361947	1078.049582	-428.017625	373.274024	1018.928283	-43.821350	430.637703	959.887145	-54.059844	487.419050	890.866246	-69.595091	466.117292	994.232243	-80.872560	507.991264	781.028094	-94.059954	405.183087	721.437327	-57.429033	335.455342	673.350180	-59.944011	256.818725	631.536740	-67.912506	358.640054	636.811310	-101.136811	142.944220	581.955883	-83.807189	176.492781	557.952679	-160.560640	101.292011	603.492614	-137.733688	209.617034	353.679046	-137.839648	137.672652	429.751554	-64.111055	288.599953	957.777922	-429.608336	346.145440	889.955467	-429.339295	388.633002	923.883372	-428.035810	394.573652	821.695253	-413.192267	444.941400	717.878185	-396.292240	386.930332	622.605320	-435.523013	362.369867	538.972148	-432.104554	335.692124	458.159687	-423.328112	414.656074	525.613917	-402.305912	290.195990	339.388812	-413.613861	328.450514	346.773028	-338.085372	238.647241	322.822581	-375.452112	489.723068	206.455095	-367.776334	387.181487	219.830346	-439.293916	-222.551372	893.355386	-249.584228	-11.969902	84.503508	-453.712217	-20.055035	80.932740	-53.512624	
1506	7.5300	712.697072	1369.281880	-107.822113	729.978706	1315.519736	-434.051021	703.795018	1419.404109	-265.708263	684.200478	1254.925878	-259.610225	663.945658	1092.648171	-0.065655	736.908015	848.802208	-60.083347	602.888958	1067.700425	-550.740257	722.998615	876.059162	-435.772121	160.108687	1227.085631	-238.274335	313.268125	1213.647834	-426.902366	329.430956	1231.882469	-98.884181	318.961622	1162.660581	-397.758104	349.860346	1177.905497	-124.393201	193.989796	1269.456421	-192.018921	187.731103	1264.529494	-297.547153	282.474862	1118.367399	-55.613665	246.066343	1076.581695	-429.320989	374.448729	1022.633586	-43.752469	433.017904	965.037846	-52.868498	491.808753	897.209132	-68.128345	468.121248	999.981911	-80.190684	514.394334	787.740156	-92.679209	411.666265	728.418389	-56.957060	341.548681	680.794332	-59.750651	262.646854	639.653898	-68.091475	364.613738	644.259188	-101.068932	148.360687	590.579515	-84.180749	182.290498	566.884940	-161.193925	106.138889	611.708964	-138.265698	217.183863	363.105862	-137.852273	144.573563	438.551556	-64.235986	284.154573	955.563968	-430.722350	339.675465	885.975458	-430.411844	383.044863	918.735436	-429.695552	386.065360	816.203028	-414.186756	435.297704	711.737763	-397.252700	379.316467	615.831354	-436.190123	355.509524	531.966905	-432.702799	329.569668	450.916427	-424.085352	407.632324	519.211369	-402.413856	284.619844	331.980688	-413.690356	322.682323	340.049513	-339.227970	233.685080	316.594845	-375.652902	483.012131	196.647108	-367.427323	380.831433	211.557668	-439.362945	-222.598906	893.317331	-249.797161	-11.952690	84.483593	-453.715863	-20.041501	80.946486	-53.503945	
